<mxfile host="app.diagrams.net" modified="2022-12-07T20:52:21.309Z" agent="5.0 (Windows)" version="20.6.0" etag="tBvotdZ9QkWMgoWen1tU" type="github">
  <diagram id="PRWJdfnXN8qkotTBnefk" name="Page-1">
    <mxGraphModel dx="1038" dy="528" grid="1" gridSize="10" guides="1" tooltips="1" connect="1" arrows="1" fold="1" page="1" pageScale="1" pageWidth="850" pageHeight="1100" math="0" shadow="0">
      <root>
        <mxCell id="0" />
        <mxCell id="1" parent="0" />
        <mxCell id="REI-GhG7COgplsTmQZDJ-3" value="" style="edgeStyle=orthogonalEdgeStyle;rounded=0;orthogonalLoop=1;jettySize=auto;html=1;" edge="1" parent="1" source="REI-GhG7COgplsTmQZDJ-1" target="REI-GhG7COgplsTmQZDJ-2">
          <mxGeometry relative="1" as="geometry" />
        </mxCell>
        <mxCell id="REI-GhG7COgplsTmQZDJ-1" value="" style="rounded=0;whiteSpace=wrap;html=1;" vertex="1" parent="1">
          <mxGeometry x="140" y="90" width="120" height="60" as="geometry" />
        </mxCell>
        <mxCell id="REI-GhG7COgplsTmQZDJ-2" value="" style="rhombus;whiteSpace=wrap;html=1;rounded=0;" vertex="1" parent="1">
          <mxGeometry x="345" y="270" width="80" height="80" as="geometry" />
        </mxCell>
      </root>
    </mxGraphModel>
  </diagram>
</mxfile>
